<svg width="200" height="200" viewBox="0 0 200 200" fill="none" xmlns="http://www.w3.org/2000/svg">
  <!-- HIVE Logo - Bee Simplified Version (for icons, favicons, small sizes) -->
  <!-- Remove signal waves and simplify details for clarity at small sizes -->
  <!-- Tactical Palette: Primary #2D3142, Secondary #BFC0C0, Accent #EF8354 -->
  
  <!-- Abdomen with stripes -->
  <ellipse cx="100" cy="135" rx="24" ry="32" fill="#2D3142"/>
  <ellipse cx="100" cy="125" rx="20" ry="7" fill="#EF8354" opacity="0.9"/>
  <ellipse cx="100" cy="137" rx="22" ry="7" fill="#EF8354" opacity="0.8"/>
  <ellipse cx="100" cy="149" rx="20" ry="6" fill="#EF8354" opacity="0.9"/>
  
  <!-- Thorax -->
  <ellipse cx="100" cy="95" rx="20" ry="24" fill="#2D3142"/>
  
  <!-- Head -->
  <circle cx="100" cy="65" r="17" fill="#2D3142"/>
  
  <!-- Eyes -->
  <circle cx="91" cy="64" r="8" fill="#EF8354"/>
  <circle cx="109" cy="64" r="8" fill="#EF8354"/>
  <circle cx="89" cy="62" r="3" fill="white"/>
  <circle cx="107" cy="62" r="3" fill="white"/>
  
  <!-- Antennae (no signal waves) -->
  <path d="M 93 51 Q 85 42 82 35" stroke="#2D3142" stroke-width="3" stroke-linecap="round"/>
  <path d="M 107 51 Q 115 42 118 35" stroke="#2D3142" stroke-width="3" stroke-linecap="round"/>
  <circle cx="82" cy="35" r="4" fill="#EF8354"/>
  <circle cx="118" cy="35" r="4" fill="#EF8354"/>
  
  <!-- Wings (simplified) -->
  <ellipse cx="73" cy="88" rx="32" ry="20" fill="#BFC0C0" opacity="0.7" transform="rotate(-30 73 88)"/>
  <ellipse cx="127" cy="88" rx="32" ry="20" fill="#BFC0C0" opacity="0.7" transform="rotate(30 127 88)"/>
  <ellipse cx="76" cy="105" rx="26" ry="16" fill="#BFC0C0" opacity="0.6" transform="rotate(-25 76 105)"/>
  <ellipse cx="124" cy="105" rx="26" ry="16" fill="#BFC0C0" opacity="0.6" transform="rotate(25 124 105)"/>
  
  <!-- Legs (simplified, fewer joints) -->
  <path d="M 90 100 L 75 112 L 70 122" stroke="#2D3142" stroke-width="3.5" stroke-linecap="round"/>
  <path d="M 88 108 L 68 120 L 62 132" stroke="#2D3142" stroke-width="3.5" stroke-linecap="round"/>
  <path d="M 110 100 L 125 112 L 130 122" stroke="#2D3142" stroke-width="3.5" stroke-linecap="round"/>
  <path d="M 112 108 L 132 120 L 138 132" stroke="#2D3142" stroke-width="3.5" stroke-linecap="round"/>
</svg>