<svg width="200" height="200" viewBox="0 0 200 200" fill="none" xmlns="http://www.w3.org/2000/svg">
  <!-- HIVE Logo - Bee Version -->
  <!-- Matches Splat Dragonfly Design Language -->
  <!-- Tactical Palette: Primary #2D3142, Secondary #BFC0C0, Accent #EF8354 -->
  
  <!-- Abdomen (rear segment with stripes) -->
  <ellipse cx="100" cy="135" rx="24" ry="32" fill="#2D3142" opacity="0.95"/>
  
  <!-- Abdomen stripes (honey bee pattern) -->
  <ellipse cx="100" cy="125" rx="20" ry="7" fill="#EF8354" opacity="0.8"/>
  <ellipse cx="100" cy="137" rx="22" ry="7" fill="#EF8354" opacity="0.7"/>
  <ellipse cx="100" cy="149" rx="20" ry="6" fill="#EF8354" opacity="0.8"/>
  
  <!-- Thorax (middle segment - fuzzy/rounded) -->
  <ellipse cx="100" cy="95" rx="20" ry="24" fill="#2D3142"/>
  <circle cx="100" cy="95" r="18" fill="#2D3142" opacity="0.3"/>
  
  <!-- Head (round) -->
  <circle cx="100" cy="65" r="17" fill="#2D3142"/>
  
  <!-- Eyes (compound eyes, larger than ant) -->
  <circle cx="91" cy="64" r="8" fill="#EF8354" opacity="0.9"/>
  <circle cx="109" cy="64" r="8" fill="#EF8354" opacity="0.9"/>
  <circle cx="89" cy="62" r="3" fill="white"/>
  <circle cx="107" cy="62" r="3" fill="white"/>
  
  <!-- Antennae (curved, characteristic bee antennae) -->
  <path d="M 93 51 Q 85 42 82 35" stroke="#2D3142" stroke-width="2.5" stroke-linecap="round"/>
  <path d="M 107 51 Q 115 42 118 35" stroke="#2D3142" stroke-width="2.5" stroke-linecap="round"/>
  
  <!-- Antennae tips (communication nodes) -->
  <circle cx="82" cy="35" r="4" fill="#EF8354" opacity="0.8"/>
  <circle cx="118" cy="35" r="4" fill="#EF8354" opacity="0.8"/>
  
  <!-- Communication signals (like dragonfly wings have detail lines) -->
  <circle cx="82" cy="35" r="6" stroke="#EF8354" stroke-width="1" fill="none" opacity="0.5"/>
  <circle cx="82" cy="35" r="8" stroke="#EF8354" stroke-width="0.8" fill="none" opacity="0.3"/>
  <circle cx="118" cy="35" r="6" stroke="#EF8354" stroke-width="1" fill="none" opacity="0.5"/>
  <circle cx="118" cy="35" r="8" stroke="#EF8354" stroke-width="0.8" fill="none" opacity="0.3"/>
  
  <!-- Upper wings (larger, more rounded than dragonfly) -->
  <ellipse cx="73" cy="88" rx="32" ry="20" fill="#BFC0C0" opacity="0.7" transform="rotate(-30 73 88)"/>
  <ellipse cx="127" cy="88" rx="32" ry="20" fill="#BFC0C0" opacity="0.7" transform="rotate(30 127 88)"/>
  
  <!-- Lower wings (smaller, behind upper wings) -->
  <ellipse cx="76" cy="105" rx="26" ry="16" fill="#BFC0C0" opacity="0.6" transform="rotate(-25 76 105)"/>
  <ellipse cx="124" cy="105" rx="26" ry="16" fill="#BFC0C0" opacity="0.6" transform="rotate(25 124 105)"/>
  
  <!-- Wing veins/detail (like dragonfly) -->
  <path d="M 58 83 Q 70 88 68 96" stroke="#2D3142" stroke-width="1.5" fill="none" opacity="0.4"/>
  <path d="M 142 83 Q 130 88 132 96" stroke="#2D3142" stroke-width="1.5" fill="none" opacity="0.4"/>
  <path d="M 65 90 Q 73 93 72 100" stroke="#2D3142" stroke-width="1" fill="none" opacity="0.3"/>
  <path d="M 135 90 Q 127 93 128 100" stroke="#2D3142" stroke-width="1" fill="none" opacity="0.3"/>
  
  <!-- Legs (6 legs, thicker/fuzzier than ant) -->
  <path d="M 90 100 L 75 112 L 70 122" stroke="#2D3142" stroke-width="3.5" stroke-linecap="round"/>
  <path d="M 88 108 L 68 120 L 62 132" stroke="#2D3142" stroke-width="3.5" stroke-linecap="round"/>
  <path d="M 90 118 L 72 132 L 68 144" stroke="#2D3142" stroke-width="3.5" stroke-linecap="round"/>
  
  <path d="M 110 100 L 125 112 L 130 122" stroke="#2D3142" stroke-width="3.5" stroke-linecap="round"/>
  <path d="M 112 108 L 132 120 L 138 132" stroke="#2D3142" stroke-width="3.5" stroke-linecap="round"/>
  <path d="M 110 118 L 128 132 L 132 144" stroke="#2D3142" stroke-width="3.5" stroke-linecap="round"/>
  
  <!-- Leg joints/pollen baskets (showing collection/distribution metaphor) -->
  <circle cx="75" cy="112" r="3.5" fill="#EF8354" opacity="0.6"/>
  <circle cx="68" cy="120" r="3.5" fill="#EF8354" opacity="0.6"/>
  <circle cx="125" cy="112" r="3.5" fill="#EF8354" opacity="0.6"/>
  <circle cx="132" cy="120" r="3.5" fill="#EF8354" opacity="0.6"/>
  
  <!-- Thorax detail (fuzzy texture suggestion) -->
  <path d="M 100 82 L 100 102" stroke="#BFC0C0" stroke-width="1.5" fill="none" opacity="0.3"/>
  <path d="M 91 95 L 109 95" stroke="#BFC0C0" stroke-width="1.5" fill="none" opacity="0.3"/>
</svg>